<svg width="428" height="743" viewBox="0 0 428 743" fill="none" xmlns="http://www.w3.org/2000/svg">
<path d="M-20.029 219.928C-30.8025 274.167 -19.6575 312.432 -37.861 346.238C-56.0645 380.045 -103.988 409.393 -105.845 430.568C-107.703 451.744 -63.866 464.375 -29.3165 505.24C5.60453 546.105 30.8665 615.575 64.673 626.72C98.4795 638.237 140.459 591.428 149.747 542.018C159.406 492.98 136.373 441.342 126.342 409.021C116.312 376.701 119.284 363.327 134.515 326.177C150.118 288.655 178.352 226.986 167.207 172.747C156.434 118.508 106.281 71.6995 65.0445 83.5875C23.808 95.4755 -8.88396 165.689 -20.029 219.928Z" fill="#484745" fill-opacity="0.09"/>
</svg>
